HIERARCHY
ROOT Pelvis
{
	OFFSET 0.000000 0.000000 0.000000
	CHANNELS 6 Xposition Yposition Zposition Xrotation Yrotation Zrotation
	JOINT LeftUpLeg_virtual
	{
		OFFSET 0.000000 0.000000 0.000000
		CHANNELS 3 Xrotation Yrotation Zrotation
		JOINT LeftUpLeg
		{
			OFFSET 8.479700 -4.795502 -0.379100
			CHANNELS 3 Xrotation Yrotation Zrotation
			JOINT LeftLeg
			{
				OFFSET 0.024144 -32.555107 0.112900
				CHANNELS 3 Xrotation Yrotation Zrotation
				JOINT LeftFoot
				{
					OFFSET -0.024144 -32.638630 -3.012600
					CHANNELS 3 Xrotation Yrotation Zrotation
					JOINT LeftToeBase
					{
						OFFSET 0.970200 -13.225400 11.864200
						CHANNELS 3 Xrotation Yrotation Zrotation
						End Site
						{
							OFFSET 0 0 0
						}
					}
				}
			}
		}
	}
	JOINT RightUpLeg_virtual
	{
		OFFSET 0.000000 0.000000 0.000000
		CHANNELS 3 Xrotation Yrotation Zrotation
		JOINT RightUpLeg
		{
			OFFSET -8.479700 -4.795502 -0.379100
			CHANNELS 3 Xrotation Yrotation Zrotation
			JOINT RightLeg
			{
				OFFSET -0.023144 -32.555092 0.112900
				CHANNELS 3 Xrotation Yrotation Zrotation
				JOINT RightFoot
				{
					OFFSET 0.023144 -32.638641 -3.012700
					CHANNELS 3 Xrotation Yrotation Zrotation
					JOINT RightToeBase
					{
						OFFSET -0.970200 -13.225400 11.864200
						CHANNELS 3 Xrotation Yrotation Zrotation
						End Site
						{
							OFFSET 0 0 0
						}
					}
				}
			}
		}
	}
	JOINT Hips_virtual
	{
		OFFSET 0.000000 0.000000 0.000000
		CHANNELS 3 Xrotation Yrotation Zrotation
		JOINT Hips
		{
			OFFSET -0.000000 -0.000000 -0.000000
			CHANNELS 3 Xrotation Yrotation Zrotation
			JOINT Spine
			{
				OFFSET 0.000000 7.722000 1.166200
				CHANNELS 3 Xrotation Yrotation Zrotation
				JOINT Spine1
				{
					OFFSET 0.000000 12.024101 0.248800
					CHANNELS 3 Xrotation Yrotation Zrotation
					JOINT Spine2
					{
						OFFSET 0.000000 11.502998 -0.491200
						CHANNELS 3 Xrotation Yrotation Zrotation
						JOINT Neck_virtual
						{
							OFFSET 0.000000 0.000000 0.000000
							CHANNELS 3 Xrotation Yrotation Zrotation
							JOINT Neck
							{
								OFFSET 0.000000 18.430702 -3.123100
								CHANNELS 3 Xrotation Yrotation Zrotation
								JOINT Head
								{
									OFFSET 0.000000 9.051102 1.034000
									CHANNELS 3 Xrotation Yrotation Zrotation
									End Site
									{
										OFFSET 0 0 0
									}
								}
							}
						}
						JOINT LeftShoulder_virtual
						{
							OFFSET 0.000000 0.000000 0.000000
							CHANNELS 3 Xrotation Yrotation Zrotation
							JOINT LeftShoulder
							{
								OFFSET 6.197800 13.665199 -4.064700
								CHANNELS 3 Xrotation Yrotation Zrotation
								JOINT LeftArm
								{
									OFFSET 7.778100 -0.187103 -1.709300
									CHANNELS 3 Xrotation Yrotation Zrotation
									JOINT LeftForeArm
									{
										OFFSET 22.049376 0.000000 0.000000
										CHANNELS 3 Xrotation Yrotation Zrotation
										JOINT LeftHand
										{
											OFFSET 23.009392 0.000000 0.000000
											CHANNELS 3 Xrotation Yrotation Zrotation
											End Site
											{
												OFFSET 0 0 0
											}
										}
									}
								}
							}
						}
						JOINT RightShoulder_virtual
						{
							OFFSET 0.000000 0.000000 0.000000
							CHANNELS 3 Xrotation Yrotation Zrotation
							JOINT RightShoulder
							{
								OFFSET -6.197800 13.665199 -4.064700
								CHANNELS 3 Xrotation Yrotation Zrotation
								JOINT RightArm
								{
									OFFSET -7.778100 -0.187103 -1.709300
									CHANNELS 3 Xrotation Yrotation Zrotation
									JOINT RightForeArm
									{
										OFFSET -22.049376 0.000000 0.000000
										CHANNELS 3 Xrotation Yrotation Zrotation
										JOINT RightHand
										{
											OFFSET -23.009392 0.000000 0.000000
											CHANNELS 3 Xrotation Yrotation Zrotation
											End Site
											{
												OFFSET 0 0 0
											}
										}
									}
								}
							}
						}
					}
				}
			}
		}
	}
}
MOTION
Frames: 4
Frame Time: 0.03333333
0.100036 75.598503 1.158981 0.000000 0.000000 0.000000 5.451842 2.998785 -3.771988 -45.365191 5.537123 -0.719156 99.220287 13.514824 3.912691 -8.455291 -0.898363 6.597725 0.000000 0.000000 0.000000 5.451842 2.998785 -3.771988 -21.007818 -6.053361 4.836991 50.170212 -0.215889 -1.611184 -25.549668 0.472869 -1.441881 0.000000 0.000000 0.000000 5.451842 2.998785 -3.771988 0.000000 0.000000 0.000000 4.908917 1.321234 2.147382 9.857122 2.800250 1.722123 0.000000 0.000000 0.000000 9.857132 2.800251 1.722122 -7.496575 -3.144982 -0.434788 0.000000 0.000000 0.000000 9.857132 2.800251 1.722122 1.084057 -1.226539 -9.108710 21.951217 16.129905 -69.744605 -174.798051 -76.010156 173.876672 0.000000 0.000000 0.000000 9.857132 2.800251 1.722122 0.776470 6.054087 9.529805 5.506725 -10.523601 55.529301 -70.896660 86.710440 75.613657 0.000000 0.000000 0.000000 
0.654053 76.638336 9.411603 0.000000 0.000000 0.000000 3.090230 0.566485 -0.537452 -53.173067 3.911540 -0.994147 94.351741 13.925603 4.008571 -0.574101 -0.682161 8.211863 0.000000 0.000000 0.000000 3.090230 0.566485 -0.537452 -13.001272 -5.128087 1.709892 49.396171 1.156381 -3.271725 -18.457300 0.475952 -0.361977 0.000000 0.000000 0.000000 3.090230 0.566485 -0.537452 0.000000 0.000000 0.000000 4.779518 1.620200 1.420677 9.626594 3.123980 0.274439 0.000000 0.000000 0.000000 9.626595 3.123981 0.274439 -2.454933 -3.325483 -1.544303 0.000000 0.000000 0.000000 9.626595 3.123981 0.274439 1.017758 -3.352019 -7.689895 20.366313 21.388601 -69.829464 -176.853542 -81.480182 172.734159 0.000000 0.000000 0.000000 9.626595 3.123981 0.274439 0.471244 6.581693 7.077384 2.677239 -8.531776 52.506338 -124.821256 83.187387 129.906318 0.000000 0.000000 0.000000 
1.183303 77.222321 17.678459 0.000000 0.000000 0.000000 0.121389 -1.659848 2.944974 -57.510206 2.189854 -2.559770 87.734640 15.053341 4.130710 4.717984 -0.454966 8.667388 0.000000 0.000000 0.000000 0.121389 -1.659848 2.944974 -7.238133 -4.017160 -2.966024 50.116042 2.272589 -4.058305 -0.443668 0.636978 2.209800 0.000000 0.000000 0.000000 0.121389 -1.659848 2.944974 0.000000 0.000000 0.000000 4.710000 1.743415 0.446869 9.488552 3.163840 -0.986325 0.000000 0.000000 0.000000 9.488544 3.163838 -0.986325 2.602472 -3.411513 -2.577497 0.000000 0.000000 0.000000 9.488544 3.163838 -0.986325 0.950474 -5.646694 -7.066022 19.644690 26.553699 -68.303408 135.056541 -88.006687 123.490476 0.000000 0.000000 0.000000 9.488544 3.163838 -0.986325 0.215433 7.052325 4.417729 -0.696332 -7.601971 49.506611 -136.723653 80.118372 141.096163 0.000000 0.000000 0.000000 
1.596923 77.003716 25.301832 0.000000 0.000000 0.000000 -3.223246 -4.363966 6.150382 -59.677193 0.676885 -4.356234 80.169516 17.912408 4.740376 6.821413 -0.389891 8.415447 0.000000 0.000000 0.000000 -3.223246 -4.363966 6.150382 -5.019659 -0.558892 -7.708971 53.768216 2.750355 -4.489660 22.146135 0.668120 -0.520491 0.000000 0.000000 0.000000 -3.223246 -4.363966 6.150382 0.000000 0.000000 0.000000 4.899175 1.846633 -0.919728 9.838375 3.169748 -2.175855 0.000000 0.000000 0.000000 9.838368 3.169750 -2.175855 7.329076 -3.470431 -3.521876 0.000000 0.000000 0.000000 9.838368 3.169750 -2.175855 0.873607 -7.727235 -6.705415 19.528655 31.328220 -66.134078 48.333311 -81.733261 34.644048 0.000000 0.000000 0.000000 9.838368 3.169750 -2.175855 -0.010818 7.405823 1.517427 -3.959894 -7.479178 46.796689 -143.758243 76.454808 146.944785 0.000000 0.000000 0.000000 
